<svg width="36" height="20" viewBox="0 0 36 20" fill="none" xmlns="http://www.w3.org/2000/svg">
<rect x="0.5" y="0.5" width="35" height="19" rx="9.5" stroke="#5A5859"/>
<path d="M22.523 10.3979L19.148 13.7729C19.0423 13.8786 18.899 13.938 18.7495 13.938C18.6001 13.938 18.4568 13.8786 18.3511 13.7729C18.2454 13.6673 18.1861 13.5239 18.1861 13.3745C18.1861 13.225 18.2454 13.0817 18.3511 12.9761L20.7656 10.5625H13.875C13.7258 10.5625 13.5827 10.5032 13.4773 10.3977C13.3718 10.2922 13.3125 10.1491 13.3125 9.99996C13.3125 9.85078 13.3718 9.7077 13.4773 9.60221C13.5827 9.49672 13.7258 9.43746 13.875 9.43746H20.7656L18.352 7.02246C18.2464 6.91679 18.187 6.77347 18.187 6.62402C18.187 6.47458 18.2464 6.33126 18.352 6.22558C18.4577 6.11991 18.601 6.06055 18.7505 6.06055C18.8999 6.06055 19.0432 6.11991 19.1489 6.22558L22.5239 9.60058C22.5764 9.65291 22.618 9.71509 22.6463 9.78354C22.6747 9.85199 22.6892 9.92536 22.6891 9.99945C22.689 10.0735 22.6743 10.1469 22.6458 10.2153C22.6173 10.2836 22.5755 10.3457 22.523 10.3979Z" fill="#AAA1A1"/>
</svg>
