<svg width="20" height="21" viewBox="0 0 20 21" fill="none" xmlns="http://www.w3.org/2000/svg">
<path d="M16.2883 14.9133L12.5383 18.6633C12.4512 18.7507 12.3477 18.82 12.2337 18.8673C12.1198 18.9147 11.9976 18.939 11.8742 18.939C11.7508 18.939 11.6287 18.9147 11.5147 18.8673C11.4007 18.82 11.2973 18.7507 11.2102 18.6633L7.46016 14.9133C7.28404 14.7372 7.18509 14.4983 7.18509 14.2492C7.18509 14.0001 7.28404 13.7613 7.46016 13.5852C7.63628 13.409 7.87515 13.3101 8.12422 13.3101C8.37329 13.3101 8.61216 13.409 8.78828 13.5852L10.9375 15.7344V10.5C10.9356 8.76009 10.2436 7.09197 9.01333 5.86167C7.78303 4.63136 6.11491 3.93936 4.375 3.9375C4.12636 3.9375 3.8879 3.83873 3.71209 3.66291C3.53627 3.4871 3.4375 3.24864 3.4375 3C3.4375 2.75136 3.53627 2.5129 3.71209 2.33709C3.8879 2.16127 4.12636 2.0625 4.375 2.0625C6.612 2.06498 8.75667 2.95473 10.3385 4.53653C11.9203 6.11833 12.81 8.263 12.8125 10.5V15.7344L14.9617 13.5844C15.1378 13.4083 15.3767 13.3093 15.6258 13.3093C15.8749 13.3093 16.1137 13.4083 16.2898 13.5844C16.466 13.7605 16.5649 13.9994 16.5649 14.2484C16.5649 14.4975 16.466 14.7364 16.2898 14.9125L16.2883 14.9133Z" fill="#AAA1A1"/>
</svg>
