<svg width="80" height="32" viewBox="0 0 80 32" fill="none" xmlns="http://www.w3.org/2000/svg">
<g clip-path="url(#clip0_89_66)">
<path d="M78.9898 32H0V0H79V32H78.9898Z" fill="#403F40"/>
<path d="M1.37695 15.686C1.37695 23.5011 17.4093 29.9966 39.6416 29.9966C61.8739 29.9966 77.8959 23.5011 77.8959 15.686C77.8959 7.87083 61.8636 1.3754 39.6416 1.3754C17.4197 1.3754 1.37695 7.87083 1.37695 15.686Z" fill="#5A5859"/>
<path d="M26.7469 9.46548C26.5751 9.80915 26.5751 10.1391 26.5751 10.4827V14.7615C26.5751 14.7615 28.8674 11.7818 29.3932 11.0739C29.7919 10.548 30.2833 9.80915 30.2833 9.46548H37.7685C37.253 9.80915 36.6825 10.4243 36.2151 10.9948C35.8027 11.4966 33.476 14.3388 33.476 14.3388C33.476 14.3388 36.9334 19.6004 37.3802 20.274C37.6276 20.6418 37.9094 20.982 38.2256 21.2913H29.6097C29.6097 20.9476 29.2798 20.2534 28.9155 19.7035C28.5512 19.1571 26.5751 16.1534 26.5751 16.1534V20.274C26.5751 20.6177 26.5751 20.9476 26.7469 21.2913H19.5676C19.7394 20.9476 19.7394 20.6177 19.7394 20.274V10.4827C19.7394 10.1391 19.7394 9.80915 19.5676 9.46548H26.7469ZM53.3232 9.46548H39.4697C39.6415 9.80915 39.6415 10.1391 39.6415 10.4827V20.274C39.6415 20.6177 39.6415 20.9476 39.4697 21.2913H53.3232V18.0161C52.9795 18.1879 52.6496 18.1879 52.3059 18.1879H46.4738V16.6345H52.0757V14.136H46.4738V12.5723H52.3059C52.6496 12.5723 52.9795 12.5723 53.3232 12.7304V9.46548ZM72.5174 20.274C72.6308 20.6486 72.8233 20.9923 73.0776 21.2913H65.5683C65.6027 20.9476 65.4755 20.6177 65.3415 20.274C65.3415 20.274 65.2281 19.9991 65.0665 19.6004L64.9978 19.4286H60.6744L60.6057 19.6107C60.6057 19.6107 60.4785 19.9407 60.3651 20.2843C60.2482 20.628 60.1245 20.9579 60.1692 21.3016H54.2477C54.4917 20.9992 54.6738 20.6555 54.7838 20.2843L58.334 10.4931C58.4611 10.1494 58.5849 9.81946 58.5402 9.47922H68.548C68.4552 9.8229 68.6407 10.1528 68.7645 10.4931C69.0635 11.2354 72.2699 19.6107 72.5174 20.274ZM64.0527 16.9301L63.0045 14.191C62.9117 13.9367 62.8361 13.6789 62.7742 13.4143C62.7296 13.6789 62.6608 13.9367 62.568 14.191C62.5337 14.3044 62.0869 15.5038 61.5748 16.9301H64.0527ZM15.9968 10.4827C15.9968 10.1391 15.9968 9.80915 16.1686 9.46548H8.36035C8.53219 9.80915 8.53219 10.1391 8.53219 10.4827V20.274C8.53219 20.6177 8.53219 20.9476 8.36035 21.2913H16.1652C15.9933 20.9476 15.9933 20.6177 15.9933 20.274L15.9968 10.4827ZM70.1254 10.4037C70.1014 11.2629 70.7784 11.9812 71.641 12.0052C72.5002 12.0293 73.2185 11.3522 73.2425 10.4896C73.2425 10.4862 73.2425 10.4862 73.2425 10.4827V10.4037C73.2597 9.56514 72.593 8.87092 71.7544 8.8503C71.751 8.8503 71.751 8.8503 71.7476 8.8503H71.6891C70.8678 8.81593 70.1735 9.45173 70.1357 10.2731C70.1357 10.2834 70.1357 10.2903 70.1357 10.3006C70.1117 10.3315 70.1082 10.3693 70.1254 10.4037ZM72.9195 10.4037C72.9332 11.0911 72.3868 11.6581 71.6994 11.6719C71.019 11.6856 70.4553 11.1495 70.4313 10.4724V10.3934C70.4072 9.7301 70.9227 9.17335 71.5826 9.1493H71.6754C72.349 9.13555 72.9057 9.67168 72.9195 10.3487V10.4037ZM72.4383 11.3419H72.129L71.7647 10.6786H71.3661V11.3419H71.0911V9.46891H71.7888C72.1153 9.47579 72.3765 9.74729 72.3696 10.0738C72.3696 10.304 72.2425 10.5137 72.0397 10.6202L72.4383 11.3419ZM71.7441 10.4037C71.916 10.4209 72.0706 10.2903 72.0878 10.1185C72.0878 10.1116 72.0878 10.1013 72.0878 10.0944C72.0878 9.91225 71.9641 9.75072 71.7785 9.75072H71.3661V10.4106H71.7441" fill="#F3F2F2"/>
</g>
<defs>
<clipPath id="clip0_89_66">
<rect width="79.5897" height="32" fill="white"/>
</clipPath>
</defs>
</svg>
