<svg width="20" height="21" viewBox="0 0 20 21" fill="none" xmlns="http://www.w3.org/2000/svg">
<path d="M16.875 2.375H3.125C2.79348 2.375 2.47554 2.5067 2.24112 2.74112C2.0067 2.97554 1.875 3.29348 1.875 3.625V17.375C1.875 17.7065 2.0067 18.0245 2.24112 18.2589C2.47554 18.4933 2.79348 18.625 3.125 18.625H16.875C17.2065 18.625 17.5245 18.4933 17.7589 18.2589C17.9933 18.0245 18.125 17.7065 18.125 17.375V3.625C18.125 3.29348 17.9933 2.97554 17.7589 2.74112C17.5245 2.5067 17.2065 2.375 16.875 2.375ZM16.875 17.375H3.125V3.625H16.875V17.375ZM7.5 9.25V14.25C7.5 14.4158 7.43415 14.5747 7.31694 14.6919C7.19973 14.8092 7.04076 14.875 6.875 14.875C6.70924 14.875 6.55027 14.8092 6.43306 14.6919C6.31585 14.5747 6.25 14.4158 6.25 14.25V9.25C6.25 9.08424 6.31585 8.92527 6.43306 8.80806C6.55027 8.69085 6.70924 8.625 6.875 8.625C7.04076 8.625 7.19973 8.69085 7.31694 8.80806C7.43415 8.92527 7.5 9.08424 7.5 9.25ZM14.375 11.4375V14.25C14.375 14.4158 14.3092 14.5747 14.1919 14.6919C14.0747 14.8092 13.9158 14.875 13.75 14.875C13.5842 14.875 13.4253 14.8092 13.3081 14.6919C13.1908 14.5747 13.125 14.4158 13.125 14.25V11.4375C13.125 11.0231 12.9604 10.6257 12.6674 10.3326C12.3743 10.0396 11.9769 9.875 11.5625 9.875C11.1481 9.875 10.7507 10.0396 10.4576 10.3326C10.1646 10.6257 10 11.0231 10 11.4375V14.25C10 14.4158 9.93415 14.5747 9.81694 14.6919C9.69973 14.8092 9.54076 14.875 9.375 14.875C9.20924 14.875 9.05027 14.8092 8.93306 14.6919C8.81585 14.5747 8.75 14.4158 8.75 14.25V9.25C8.75078 9.09691 8.80771 8.94943 8.91001 8.83553C9.01231 8.72164 9.15285 8.64925 9.30498 8.6321C9.45711 8.61495 9.61024 8.65423 9.73533 8.7425C9.86041 8.83076 9.94876 8.96186 9.98359 9.11094C10.4064 8.82412 10.8993 8.65789 11.4095 8.63009C11.9196 8.6023 12.4277 8.71399 12.8792 8.95317C13.3306 9.19236 13.7084 9.55 13.972 9.98769C14.2355 10.4254 14.3748 10.9266 14.375 11.4375ZM7.8125 7.0625C7.8125 7.24792 7.75752 7.42918 7.6545 7.58335C7.55149 7.73752 7.40507 7.85768 7.23377 7.92864C7.06246 7.99959 6.87396 8.01816 6.6921 7.98199C6.51025 7.94581 6.3432 7.85652 6.21209 7.72541C6.08098 7.5943 5.99169 7.42725 5.95551 7.2454C5.91934 7.06354 5.93791 6.87504 6.00886 6.70373C6.07982 6.53243 6.19998 6.38601 6.35415 6.283C6.50832 6.17998 6.68958 6.125 6.875 6.125C7.12364 6.125 7.3621 6.22377 7.53791 6.39959C7.71373 6.5754 7.8125 6.81386 7.8125 7.0625Z" fill="#F3F2F2"/>
</svg>
