<svg width="173" height="32" viewBox="0 0 173 32" fill="none" xmlns="http://www.w3.org/2000/svg">
<path d="M37.42 23V9H39.54V23H37.42ZM42.3809 23V9H44.8809L49.6209 18.32L54.3409 9H56.8409V23H54.7209V12.66L50.4409 21H48.8009L44.5009 12.68V23H42.3809ZM59.6856 23V9H64.5056C65.6123 9 66.519 9.18667 67.2256 9.56C67.9456 9.93333 68.479 10.44 68.8256 11.08C69.1723 11.7067 69.3456 12.4067 69.3456 13.18C69.3456 14.0467 69.1123 14.8333 68.6456 15.54C68.1923 16.2467 67.479 16.7533 66.5056 17.06L69.4856 23H67.0256L64.3056 17.36H61.8056V23H59.6856ZM61.8056 15.76H64.3856C65.3456 15.76 66.0456 15.5267 66.4856 15.06C66.939 14.5933 67.1656 13.9867 67.1656 13.24C67.1656 12.4933 66.9456 11.9 66.5056 11.46C66.0656 11.0067 65.3523 10.78 64.3656 10.78H61.8056V15.76ZM70.9536 23L76.1136 9H78.4336L83.5536 23H81.3136L80.1136 19.58H74.3936L73.1936 23H70.9536ZM74.9936 17.9H79.5136L77.2536 11.52L74.9936 17.9ZM84.6059 23L89.7659 9H92.0859L97.2059 23H94.9659L93.7659 19.58H88.0459L86.8459 23H84.6059ZM88.6459 17.9H93.1659L90.9059 11.52L88.6459 17.9ZM99.1583 23V9H101.278L108.298 19.54V9H110.418V23H108.298L101.278 12.46V23H99.1583ZM117.399 23L122.559 9H124.879L129.999 23H127.759L126.559 19.58H120.839L119.639 23H117.399ZM121.439 17.9H125.959L123.699 11.52L121.439 17.9ZM131.951 23V9H134.071V21.32H140.431V23H131.951ZM141.813 23L146.973 9H149.293L154.413 23H152.173L150.973 19.58H145.253L144.053 23H141.813ZM145.853 17.9H150.373L148.113 11.52L145.853 17.9ZM156.365 23V9H158.865L163.605 18.32L168.325 9H170.825V23H168.705V12.66L164.425 21H162.785L158.485 12.68V23H156.365Z" fill="#DBD7D7"/>
<rect width="32" height="32" rx="4" fill="#E5383B"/>
<path d="M6 28L14.5 5.5H18.5L26.492 28H22.908L20.988 22.528H11.9536L10 28H6ZM12.9129 19.84H20.028L16.5 9.5L12.9129 19.84Z" fill="#660708"/>
<path d="M14.4999 5.50001L18 5.5L9.99986 28L5.99986 28L14.4999 5.50001Z" fill="#DBD7D7"/>
<path d="M18.5 3L18 4.5L14.5 5.5L18.5 3Z" fill="#DBD7D7"/>
</svg>
